# xmcd
#
# Track frame offsets:
# 150
# 18180
# 32380
# 45215
# 58918
# 78618
# 90360
# 101308
# 111748
# 130898
#
# Disc length: 1981 seconds
#
#
# Revision: 3
# Processed by: cddbd v1.5.2PL0 Copyright (c) Steve Scherf et al.
# Submitted via: CDex 1.70beta2 
#
DISCID=7207bb0a
DTITLE=Hank Williams Jr - Greatest Hits
DYEAR=1993
DGENRE=Country
TTITLE0=Family Tradition
TTITLE1=Whiskey Bent And Hell Bound
TTITLE2=Women I've Never Had
TTITLE3=Old Habits
TTITLE4=Kaw-Liga
TTITLE5=Dixie On My Mind
TTITLE6=Texas Women
TTITLE7=The American Dream
TTITLE8=A Country Boy Can Survive
TTITLE9=All My Rowdy Friends (Have Settled Down)
EXTD=YEAR: 1993
EXTT0=
EXTT1=
EXTT2=
EXTT3=
EXTT4=
EXTT5=
EXTT6=
EXTT7=
EXTT8=
EXTT9=
PLAYORDER=
